<svg width="130" height="88" viewBox="0 0 130 88" fill="none" xmlns="http://www.w3.org/2000/svg">
<path fill-rule="evenodd" clip-rule="evenodd" d="M129.933 50.5C116.965 28.0825 92.7269 13 64.9663 13C37.2057 13 12.9679 28.0825 0 50.5C12.9679 72.9176 37.2057 88 64.9663 88C92.7269 88 116.965 72.9176 129.933 50.5Z" fill="url(#paint0_linear_11_13)" fill-opacity="0.4"/>
<path fill-rule="evenodd" clip-rule="evenodd" d="M129.933 37.5C116.965 15.0825 92.7269 8.9407e-06 64.9663 8.9407e-06C37.2057 8.9407e-06 12.9679 15.0825 0 37.5C12.9679 59.9176 37.2057 75 64.9663 75C92.7269 75 116.965 59.9176 129.933 37.5Z" fill="url(#paint1_linear_11_13)" fill-opacity="0.9"/>
<defs>
<linearGradient id="paint0_linear_11_13" x1="0" y1="38" x2="129.933" y2="38" gradientUnits="userSpaceOnUse">
<stop stop-color="#5769C6"/>
<stop offset="1" stop-color="#E630D3"/>
</linearGradient>
<linearGradient id="paint1_linear_11_13" x1="0" y1="25" x2="129.933" y2="25" gradientUnits="userSpaceOnUse">
<stop stop-color="#5769C6"/>
<stop offset="1" stop-color="#E630D3"/>
</linearGradient>
</defs>
</svg>
