<svg width="67" height="38" viewBox="0 0 67 38" fill="none" xmlns="http://www.w3.org/2000/svg">
<path fill-rule="evenodd" clip-rule="evenodd" d="M66.3167 25.5C57.4798 17.7204 45.8718 13 33.1584 13C20.445 13 8.83697 17.7204 0 25.5C8.83697 33.2795 20.445 38 33.1584 38C45.8718 38 57.4798 33.2795 66.3167 25.5Z" fill="url(#paint0_linear_93_23)" fill-opacity="0.4"/>
<path fill-rule="evenodd" clip-rule="evenodd" d="M66.3167 12.5C57.4798 4.72045 45.8718 -1.22786e-05 33.1584 -1.22786e-05C20.445 -1.22786e-05 8.83697 4.72045 0 12.5C8.83697 20.2795 20.445 25 33.1584 25C45.8718 25 57.4798 20.2795 66.3167 12.5Z" fill="url(#paint1_linear_93_23)" fill-opacity="0.9"/>
<defs>
<linearGradient id="paint0_linear_93_23" x1="-6.91139" y1="-12" x2="123.357" y2="-12" gradientUnits="userSpaceOnUse">
<stop stop-color="#5769C6"/>
<stop offset="1" stop-color="#E630D3"/>
</linearGradient>
<linearGradient id="paint1_linear_93_23" x1="-6.91139" y1="-25" x2="123.357" y2="-25" gradientUnits="userSpaceOnUse">
<stop stop-color="#5769C6"/>
<stop offset="1" stop-color="#E630D3"/>
</linearGradient>
</defs>
</svg>
