<svg width="108" height="68" viewBox="0 0 108 68" fill="none" xmlns="http://www.w3.org/2000/svg">
<path fill-rule="evenodd" clip-rule="evenodd" d="M107.065 40.5C95.293 23.862 75.8982 13 53.9663 13C32.0345 13 12.6397 23.862 0.86792 40.5C12.6397 57.138 32.0345 68 53.9663 68C75.8982 68 95.293 57.138 107.065 40.5Z" fill="url(#paint0_linear_15_55)" fill-opacity="0.4"/>
<path fill-rule="evenodd" clip-rule="evenodd" d="M107.065 27.5C95.293 10.862 75.8982 -8.70228e-06 53.9663 -8.70228e-06C32.0345 -8.70228e-06 12.6397 10.862 0.86792 27.5C12.6397 44.138 32.0345 55 53.9663 55C75.8982 55 95.293 44.138 107.065 27.5Z" fill="url(#paint1_linear_15_55)" fill-opacity="0.9"/>
<defs>
<linearGradient id="paint0_linear_15_55" x1="-1" y1="18" x2="128.933" y2="18" gradientUnits="userSpaceOnUse">
<stop stop-color="#5769C6"/>
<stop offset="1" stop-color="#E630D3"/>
</linearGradient>
<linearGradient id="paint1_linear_15_55" x1="-1" y1="5" x2="128.933" y2="5" gradientUnits="userSpaceOnUse">
<stop stop-color="#5769C6"/>
<stop offset="1" stop-color="#E630D3"/>
</linearGradient>
</defs>
</svg>
